<svg width="20" height="21" viewBox="0 0 20 21" fill="none" xmlns="http://www.w3.org/2000/svg">
<path d="M3 7.48732V15.4873M7.5 7.48732V15.4873M12.5 7.48732V15.4873M17 7.48732V15.4873M1 17.0873L1 17.8873C1 18.4474 1 18.7274 1.10899 18.9413C1.20487 19.1295 1.35785 19.2825 1.54601 19.3783C1.75992 19.4873 2.03995 19.4873 2.6 19.4873H17.4C17.9601 19.4873 18.2401 19.4873 18.454 19.3783C18.6422 19.2825 18.7951 19.1295 18.891 18.9413C19 18.7274 19 18.4474 19 17.8873V17.0873C19 16.5273 19 16.2472 18.891 16.0333C18.7951 15.8452 18.6422 15.6922 18.454 15.5963C18.2401 15.4873 17.9601 15.4873 17.4 15.4873H2.6C2.03995 15.4873 1.75992 15.4873 1.54601 15.5963C1.35785 15.6922 1.20487 15.8452 1.10899 16.0333C1 16.2472 1 16.5273 1 17.0873ZM9.65291 1.56446L2.25291 3.2089C1.80585 3.30825 1.58232 3.35792 1.41546 3.47813C1.26829 3.58416 1.15273 3.72822 1.08115 3.89489C1 4.08385 1 4.31283 1 4.7708L1 5.88732C1 6.44738 1 6.7274 1.10899 6.94131C1.20487 7.12948 1.35785 7.28246 1.54601 7.37833C1.75992 7.48732 2.03995 7.48732 2.6 7.48732H17.4C17.9601 7.48732 18.2401 7.48732 18.454 7.37833C18.6422 7.28246 18.7951 7.12948 18.891 6.94132C19 6.7274 19 6.44738 19 5.88732V4.7708C19 4.31283 19 4.08385 18.9188 3.89489C18.8473 3.72822 18.7317 3.58416 18.5845 3.47813C18.4177 3.35792 18.1942 3.30825 17.7471 3.2089L10.3471 1.56446C10.2176 1.53567 10.1528 1.52128 10.0874 1.51554C10.0292 1.51044 9.97077 1.51044 9.91264 1.51554C9.8472 1.52128 9.78244 1.53567 9.65291 1.56446Z" stroke="#E5000E" stroke-width="2" stroke-linecap="round" stroke-linejoin="round"/>
</svg>
