<svg width="24" height="23" viewBox="0 0 24 23" fill="none" xmlns="http://www.w3.org/2000/svg">
<path d="M4.017 16.841C4.1727 16.9973 4.292 17.186 4.36641 17.3937C4.44082 17.6014 4.46851 17.8229 4.4475 18.0425C4.34208 19.0589 4.14222 20.0632 3.8505 21.0425C5.943 20.558 7.221 19.997 7.8015 19.703C8.13075 19.5362 8.50993 19.4967 8.8665 19.592C9.88865 19.8645 10.9421 20.0017 12 20C17.994 20 22.5 15.7895 22.5 11C22.5 6.212 17.994 2 12 2C6.006 2 1.5 6.212 1.5 11C1.5 13.202 2.4255 15.245 4.017 16.841ZM3.2775 22.6985C2.9221 22.769 2.56555 22.8335 2.208 22.892C1.908 22.94 1.68 22.628 1.7985 22.349C1.93169 22.0349 2.05376 21.7162 2.1645 21.3935L2.169 21.3785C2.541 20.2985 2.844 19.0565 2.955 17.9C1.1145 16.055 0 13.64 0 11C0 5.201 5.373 0.5 12 0.5C18.627 0.5 24 5.201 24 11C24 16.799 18.627 21.5 12 21.5C10.8115 21.5016 9.62788 21.3473 8.4795 21.041C7.6995 21.4355 6.021 22.154 3.2775 22.6985Z" fill="#0F3677"/>
<path d="M6 7.25C6 7.05109 6.07902 6.86032 6.21967 6.71967C6.36032 6.57902 6.55109 6.5 6.75 6.5H17.25C17.4489 6.5 17.6397 6.57902 17.7803 6.71967C17.921 6.86032 18 7.05109 18 7.25C18 7.44891 17.921 7.63968 17.7803 7.78033C17.6397 7.92098 17.4489 8 17.25 8H6.75C6.55109 8 6.36032 7.92098 6.21967 7.78033C6.07902 7.63968 6 7.44891 6 7.25ZM6 11C6 10.8011 6.07902 10.6103 6.21967 10.4697C6.36032 10.329 6.55109 10.25 6.75 10.25H17.25C17.4489 10.25 17.6397 10.329 17.7803 10.4697C17.921 10.6103 18 10.8011 18 11C18 11.1989 17.921 11.3897 17.7803 11.5303C17.6397 11.671 17.4489 11.75 17.25 11.75H6.75C6.55109 11.75 6.36032 11.671 6.21967 11.5303C6.07902 11.3897 6 11.1989 6 11ZM6 14.75C6 14.5511 6.07902 14.3603 6.21967 14.2197C6.36032 14.079 6.55109 14 6.75 14H12.75C12.9489 14 13.1397 14.079 13.2803 14.2197C13.421 14.3603 13.5 14.5511 13.5 14.75C13.5 14.9489 13.421 15.1397 13.2803 15.2803C13.1397 15.421 12.9489 15.5 12.75 15.5H6.75C6.55109 15.5 6.36032 15.421 6.21967 15.2803C6.07902 15.1397 6 14.9489 6 14.75Z" fill="#0F3677"/>
</svg>
